<svg width="1087" height="343" viewBox="0 0 1087 343" fill="none" xmlns="http://www.w3.org/2000/svg">
<path d="M472.415 342.125H469.993V322.275L459.093 311.375H386.423L375.361 322.45V342.125H372.939V321.441L385.414 308.953H460.102L472.415 321.28V342.125Z" fill="black"/>
<path d="M375.361 315.21H372.939V275.875H399.585V306.248H397.162V278.297H375.361V315.21Z" fill="black"/>
<path d="M363.694 342.125H361.272V286.197H369.211V288.619H363.694V342.125Z" fill="black"/>
<path d="M336.335 342.125H333.913V322.531H340.816V330.606H345.567V324.94H357.1V327.362H347.989V333.028H338.394V324.954H336.335V342.125Z" fill="black"/>
<path d="M325.112 342.125H322.69V313.999H336.335V319.248H333.913V316.422H325.112V342.125Z" fill="black"/>
<path d="M263.881 342.125H261.459V335.571L271.646 325.384L280.891 334.643H292.639V327.457H310.134V317.592H320.765V320.015H312.556V329.879H295.062V337.065H279.895L271.646 328.816L263.881 336.581V342.125Z" fill="black"/>
<path d="M256.143 342.125H253.721V333.768L247.759 327.806L242.134 333.432V342.125H239.712V332.436L247.759 324.375L256.143 332.772V342.125Z" fill="black"/>
<path d="M286.086 330.471H283.663V308.347H249.132V318.804H246.709V305.925H286.086V330.471Z" fill="black"/>
<path d="M304.926 323.742H302.503V294.446H253.344V303.556H250.922V292.023H304.926V323.742Z" fill="black"/>
<path d="M311.654 312.977H309.232V268.433H269.493V287.408H267.07V266.01H311.654V312.977Z" fill="black"/>
<path d="M320.186 312.976H317.764V294.446H313.269V257.667H286.086V263.184H283.663V255.245H315.692V292.023H320.186V312.976Z" fill="black"/>
<path d="M23.6682 342.125H21.2459V331.682H2.59407V342.125H0.171753V329.26H23.6682V342.125Z" fill="black"/>
<path d="M60.9046 342.125H58.4823V324.886H69.2481V302.076H23.6682V326.151H21.2459V299.654H71.6704V327.309H60.9046V342.125Z" fill="black"/>
<path d="M45.1999 342.125H42.7776V317.592H64.6323V320.015H45.1999V342.125Z" fill="black"/>
<path d="M108.907 305.346H106.484V281.89H71.6703V296.155H69.248V279.468H108.907V305.346Z" fill="black"/>
<path d="M93.6462 342.125H91.2239V308.953H123.844V311.375H93.6462V342.125Z" fill="black"/>
<path d="M108.907 273.493H106.484V255.245H123.844V257.667H108.907V273.493Z" fill="black"/>
<path d="M129.537 342.125H127.114V0H166.235L195.41 11.3983L207.804 24.6672H224.734L243.022 77.4737V323.742H240.6V77.6756L223.011 27.0896H206.741L194.011 13.4573L165.777 2.42231H129.537V342.125Z" fill="black"/>
<path d="M432.326 305.346H429.904V203.515L436.269 117.523H465.66V119.945H438.516L432.326 203.609V305.346Z" fill="black"/>
<path d="M438.342 120.658C427.051 117.846 415.881 111.601 417.389 105.532C418.896 99.4763 431.707 99.1803 442.984 101.993C451.664 104.146 459.052 107.928 462.282 111.844L460.412 113.391C457.532 109.906 450.467 106.366 442.392 104.361C430.065 101.293 420.551 102.841 419.73 106.138C418.909 109.435 426.593 115.262 438.92 118.33L438.342 120.658Z" fill="black"/>
<path d="M493.328 231.775H490.906V214.738L481.553 41.0043H459.9L452.014 67.9459L445.756 100.58L443.388 100.122L449.659 67.3672L458.083 38.582H483.841L493.328 214.671V231.775Z" fill="black"/>
<path d="M519.354 342.125H516.932V314.188H507.512V306.557H480.597V302.076H469.562V312.977H467.14V299.654H483.02V304.135H509.934V311.765H519.354V342.125Z" fill="black"/>
<path d="M552.54 342.125H550.118V237.024H493.328V300.865H490.906V234.601H552.54V342.125Z" fill="black"/>
<path d="M579.67 293.235H577.248V270.667H554.478V268.244H579.67V293.235Z" fill="black"/>
<path d="M713.584 298.618H711.161V261.704H618.939V293.235H616.503V259.282H713.584V298.618Z" fill="black"/>
<path d="M791.192 342.125H788.756V322.706H777.546V304.31H702.185V285.927H663.348V342.125H660.912V283.505H704.608V301.888H779.969V320.284H791.192V342.125Z" fill="black"/>
<path d="M788.501 315.21H786.065V155.836H749.475V166.965H718.523V298.618H716.087V164.543H747.039V153.413H788.501V315.21Z" fill="black"/>
<path d="M913.196 342.125H910.774V321.912L905.108 314.632H842.774V322.706H796.252V320.284H840.352V312.209H906.306L913.196 321.078V342.125Z" fill="black"/>
<path d="M829.761 317.902H827.338V313.73H809.844V308.347H791.327V305.925H812.266V311.308H829.761V317.902Z" fill="black"/>
<path d="M820.341 307.136H817.918V266.01H836.758V255.245H862.058V264.53H859.636V257.667H839.181V268.433H820.341V307.136Z" fill="black"/>
<path d="M858.021 309.383H855.599V298.039H828.549V295.617H858.021V309.383Z" fill="black"/>
<path d="M875.071 309.383H872.649V270.667H858.021V293.235H855.599V268.244H875.071V309.383Z" fill="black"/>
<path d="M936.531 342.125H934.095V224.468H888.529V309.383H886.106V222.046H936.531V342.125Z" fill="black"/>
<path d="M996.631 342.125H994.209V239.271H978.504V224.468H939.357V222.046H980.94V236.849H996.631V342.125Z" fill="black"/>
<path d="M1043.29 247.345H1001.26V244.923H1040.87V230.295H983.308V227.873H1043.29V247.345Z" fill="black"/>
<path d="M1039.69 250.615H1037.27V340.335H1039.69V250.615Z" fill="black"/>
<path d="M1027.14 225.047H1024.72V216.838H996.631V225.047H994.209V214.415H1027.14V225.047Z" fill="black"/>
<path d="M1074.24 342.125H1071.82V328.991H1064.19V314.632H1044.32V312.209H1066.61V326.568H1074.24V342.125Z" fill="black"/>
<path d="M1086.8 342.125H1084.37V310.595H1074.24V321.939H1071.82V308.172H1086.8V342.125Z" fill="black"/>
<path d="M391.053 273.385H388.63C388.63 269.725 385.656 266.751 381.996 266.751C378.335 266.751 375.361 269.725 375.361 273.385H372.939C372.939 268.392 377.003 264.328 381.996 264.328C386.988 264.328 391.053 268.392 391.053 273.385Z" fill="black"/>
<path d="M64.6188 304.445H58.119V307.136H64.6188V304.445Z" fill="black"/>
<path d="M64.6188 308.818H58.119V311.51H64.6188V308.818Z" fill="black"/>
<path d="M64.6188 313.192H58.119V315.883H64.6188V313.192Z" fill="black"/>
<path d="M55.7638 304.445H49.2639V307.136H55.7638V304.445Z" fill="black"/>
<path d="M55.7638 308.818H49.2639V311.51H55.7638V308.818Z" fill="black"/>
<path d="M55.7638 313.192H49.2639V315.883H55.7638V313.192Z" fill="black"/>
<path d="M33.1152 304.445H26.6154V307.136H33.1152V304.445Z" fill="black"/>
<path d="M33.1152 308.818H26.6154V311.51H33.1152V308.818Z" fill="black"/>
<path d="M33.1152 313.192H26.6154V315.883H33.1152V313.192Z" fill="black"/>
<path d="M33.1152 322.948H26.6154V325.64H33.1152V322.948Z" fill="black"/>
<path d="M33.1152 327.322H26.6154V330.013H33.1152V327.322Z" fill="black"/>
<path d="M33.1152 331.696H26.6154V334.387H33.1152V331.696Z" fill="black"/>
<path d="M84.1453 286.506H78.0895V289.426H84.1453V286.506Z" fill="black"/>
<path d="M84.1453 294.58H78.0895V297.501H84.1453V294.58Z" fill="black"/>
<path d="M84.1453 302.655H78.0895V305.575H84.1453V302.655Z" fill="black"/>
<path d="M84.1453 310.729H78.0895V313.649H84.1453V310.729Z" fill="black"/>
<path d="M84.1453 318.803H78.0895V321.724H84.1453V318.803Z" fill="black"/>
<path d="M84.1453 326.878H78.0895V329.798H84.1453V326.878Z" fill="black"/>
<path d="M84.1453 334.952H78.0895V337.873H84.1453V334.952Z" fill="black"/>
<path d="M103.874 286.506H92.4351V289.426H103.874V286.506Z" fill="black"/>
<path d="M123.844 261.166H117.789V262.956H123.844V261.166Z" fill="black"/>
<path d="M123.844 268.567H117.789V270.357H123.844V268.567Z" fill="black"/>
<path d="M123.844 275.969H117.789V277.759H123.844V275.969Z" fill="black"/>
<path d="M117.789 318.803H111.733V321.441H117.789V318.803Z" fill="black"/>
<path d="M100.348 312.775H97.7102V315.412H100.348V312.775Z" fill="black"/>
<path d="M100.348 317.485H97.7102V320.122H100.348V317.485Z" fill="black"/>
<path d="M100.348 322.195H97.7102V324.832H100.348V322.195Z" fill="black"/>
<path d="M100.348 326.905H97.7102V329.542H100.348V326.905Z" fill="black"/>
<path d="M100.348 331.615H97.7102V334.253H100.348V331.615Z" fill="black"/>
<path d="M100.348 336.325H97.7102V338.963H100.348V336.325Z" fill="black"/>
<path d="M117.789 324.321H111.733V326.959H117.789V324.321Z" fill="black"/>
<path d="M117.789 335.221H111.733V337.859H117.789V335.221Z" fill="black"/>
<path d="M123.844 283.37H117.789V285.16H123.844V283.37Z" fill="black"/>
<path d="M123.844 290.772H117.789V292.562H123.844V290.772Z" fill="black"/>
<path d="M123.844 298.173H117.789V299.963H123.844V298.173Z" fill="black"/>
<path d="M167.217 1.21118H164.795V273.493H167.217V1.21118Z" fill="black"/>
<path d="M208.491 25.8784H206.068V273.385H208.491V25.8784Z" fill="black"/>
<path d="M225.084 25.8784H222.661V273.493H225.084V25.8784Z" fill="black"/>
<path d="M240.923 276.548H156.815V278.97H240.923V276.548Z" fill="black"/>
<path d="M241.825 283.949H156.815V286.371H241.825V283.949Z" fill="black"/>
<path d="M161.067 8.38391H148.512V12.4211H161.067V8.38391Z" fill="black"/>
<path d="M161.067 21.8412H148.512V25.8784H161.067V21.8412Z" fill="black"/>
<path d="M161.067 35.2985H148.512V39.3357H161.067V35.2985Z" fill="black"/>
<path d="M161.067 48.7559H148.512V52.7931H161.067V48.7559Z" fill="black"/>
<path d="M161.067 85.5481H148.512V89.5853H161.067V85.5481Z" fill="black"/>
<path d="M161.067 99.0054H148.512V103.043H161.067V99.0054Z" fill="black"/>
<path d="M161.067 112.463H148.512V116.5H161.067V112.463Z" fill="black"/>
<path d="M161.067 125.92H148.512V129.957H161.067V125.92Z" fill="black"/>
<path d="M161.067 162.699H148.512V166.736H161.067V162.699Z" fill="black"/>
<path d="M161.067 176.156H148.512V180.193H161.067V176.156Z" fill="black"/>
<path d="M161.067 189.613H148.512V193.651H161.067V189.613Z" fill="black"/>
<path d="M161.067 203.071H148.512V207.108H161.067V203.071Z" fill="black"/>
<path d="M201.21 50.2765H188.655V54.3137H201.21V50.2765Z" fill="black"/>
<path d="M201.21 63.7338H188.655V67.771H201.21V63.7338Z" fill="black"/>
<path d="M201.21 77.191H188.655V81.2282H201.21V77.191Z" fill="black"/>
<path d="M201.21 90.6484H188.655V94.6856H201.21V90.6484Z" fill="black"/>
<path d="M201.21 127.427H188.655V131.464H201.21V127.427Z" fill="black"/>
<path d="M201.21 140.885H188.655V144.922H201.21V140.885Z" fill="black"/>
<path d="M201.21 154.342H188.655V158.379H201.21V154.342Z" fill="black"/>
<path d="M201.21 167.799H188.655V171.836H201.21V167.799Z" fill="black"/>
<path d="M201.21 204.591H188.655V208.629H201.21V204.591Z" fill="black"/>
<path d="M201.21 218.049H188.655V222.086H201.21V218.049Z" fill="black"/>
<path d="M201.21 231.506H188.655V235.543H201.21V231.506Z" fill="black"/>
<path d="M201.21 244.963H188.655V249H201.21V244.963Z" fill="black"/>
<path d="M150.53 307.136H137.975V311.173H150.53V307.136Z" fill="black"/>
<path d="M150.53 320.593H137.975V324.63H150.53V320.593Z" fill="black"/>
<path d="M169.37 293.679H156.815V297.716H169.37V293.679Z" fill="black"/>
<path d="M169.37 307.136H156.815V311.173H169.37V307.136Z" fill="black"/>
<path d="M188.211 293.679H175.655V297.716H188.211V293.679Z" fill="black"/>
<path d="M188.211 307.136H175.655V311.173H188.211V307.136Z" fill="black"/>
<path d="M188.211 320.593H175.655V324.63H188.211V320.593Z" fill="black"/>
<path d="M207.051 293.679H194.495V297.716H207.051V293.679Z" fill="black"/>
<path d="M207.051 320.593H194.495V324.63H207.051V320.593Z" fill="black"/>
<path d="M225.891 307.136H213.335V311.173H225.891V307.136Z" fill="black"/>
<path d="M225.891 320.593H213.335V324.63H225.891V320.593Z" fill="black"/>
<path d="M220.508 92.2767H213.335V96.3139H220.508V92.2767Z" fill="black"/>
<path d="M220.508 105.734H213.335V109.771H220.508V105.734Z" fill="black"/>
<path d="M220.508 119.191H213.335V123.229H220.508V119.191Z" fill="black"/>
<path d="M220.508 132.649H213.335V136.686H220.508V132.649Z" fill="black"/>
<path d="M220.508 169.427H213.335V173.465H220.508V169.427Z" fill="black"/>
<path d="M220.508 182.885H213.335V186.922H220.508V182.885Z" fill="black"/>
<path d="M220.508 196.342H213.335V200.379H220.508V196.342Z" fill="black"/>
<path d="M220.508 209.799H213.335V213.837H220.508V209.799Z" fill="black"/>
<path d="M220.508 246.578H213.335V250.615H220.508V246.578Z" fill="black"/>
<path d="M220.508 260.035H213.335V264.073H220.508V260.035Z" fill="black"/>
<path d="M291.724 273.385H282.641V275.969H291.724V273.385Z" fill="black"/>
<path d="M291.724 279.387H282.641V281.971H291.724V279.387Z" fill="black"/>
<path d="M291.724 285.389H282.641V287.973H291.724V285.389Z" fill="black"/>
<path d="M262.67 312.304H254.932V316.139H262.67V312.304Z" fill="black"/>
<path d="M262.67 320.701H254.932V324.536H262.67V320.701Z" fill="black"/>
<path d="M298.332 298.173H294.294V305.346H298.332V298.173Z" fill="black"/>
<path d="M298.332 309.383H294.294V316.556H298.332V309.383Z" fill="black"/>
<path d="M380.542 280.679H377.851V285.389H380.542V280.679Z" fill="black"/>
<path d="M394 280.679H391.308V285.389H394V280.679Z" fill="black"/>
<path d="M388.051 280.679H383.786V285.389H388.051V280.679Z" fill="black"/>
<path d="M380.542 289.426H377.851V294.136H380.542V289.426Z" fill="black"/>
<path d="M394 289.426H391.308V294.136H394V289.426Z" fill="black"/>
<path d="M388.051 289.426H383.786V294.136H388.051V289.426Z" fill="black"/>
<path d="M380.542 298.173H377.851V302.884H380.542V298.173Z" fill="black"/>
<path d="M394 298.173H391.308V302.884H394V298.173Z" fill="black"/>
<path d="M388.051 298.173H383.786V302.884H388.051V298.173Z" fill="black"/>
<path d="M460.95 320.728H374.15V323.15H460.95V320.728Z" fill="black"/>
<path d="M383.799 326.77H380.542V330.471H383.799V326.77Z" fill="black"/>
<path d="M391.47 326.77H388.213V330.471H391.47V326.77Z" fill="black"/>
<path d="M399.154 326.77H395.897V330.471H399.154V326.77Z" fill="black"/>
<path d="M406.838 326.77H403.581V330.471H406.838V326.77Z" fill="black"/>
<path d="M414.522 326.77H411.265V330.471H414.522V326.77Z" fill="black"/>
<path d="M422.206 326.77H418.95V330.471H422.206V326.77Z" fill="black"/>
<path d="M429.89 326.77H426.634V330.471H429.89V326.77Z" fill="black"/>
<path d="M437.561 326.77H434.304V330.471H437.561V326.77Z" fill="black"/>
<path d="M445.245 326.77H441.988V330.471H445.245V326.77Z" fill="black"/>
<path d="M452.929 326.77H449.673V330.471H452.929V326.77Z" fill="black"/>
<path d="M460.613 326.77H457.357V330.471H460.613V326.77Z" fill="black"/>
<path d="M383.799 334.454H380.542V338.155H383.799V334.454Z" fill="black"/>
<path d="M391.47 334.454H388.213V338.155H391.47V334.454Z" fill="black"/>
<path d="M399.154 334.454H395.897V338.155H399.154V334.454Z" fill="black"/>
<path d="M406.838 334.454H403.581V338.155H406.838V334.454Z" fill="black"/>
<path d="M414.522 334.454H411.265V338.155H414.522V334.454Z" fill="black"/>
<path d="M422.206 334.454H418.95V338.155H422.206V334.454Z" fill="black"/>
<path d="M429.89 334.454H426.634V338.155H429.89V334.454Z" fill="black"/>
<path d="M437.561 334.454H434.304V338.155H437.561V334.454Z" fill="black"/>
<path d="M445.245 334.454H441.988V338.155H445.245V334.454Z" fill="black"/>
<path d="M452.929 334.454H449.673V338.155H452.929V334.454Z" fill="black"/>
<path d="M460.613 334.454H457.357V338.155H460.613V334.454Z" fill="black"/>
<path d="M514.106 318.803H482.145V321.495H514.106V318.803Z" fill="black"/>
<path d="M514.106 325.425H482.145V328.116H514.106V325.425Z" fill="black"/>
<path d="M514.106 332.032H482.145V334.723H514.106V332.032Z" fill="black"/>
<path d="M477.637 296.155H475.215V212.047L473.855 81.9684L481.513 39.5779L483.894 40.0085L476.291 82.1702L477.637 212.033V296.155Z" fill="black"/>
<path d="M502.331 242.877H499.976V273.385H502.331V242.877Z" fill="black"/>
<path d="M509.06 242.877H506.705V273.385H509.06V242.877Z" fill="black"/>
<path d="M515.788 242.877H513.433V273.385H515.788V242.877Z" fill="black"/>
<path d="M522.517 242.877H520.162V273.385H522.517V242.877Z" fill="black"/>
<path d="M506.225 280.064V277.709H496.079V280.064H506.225Z" fill="black"/>
<path d="M522.205 286.744V277.391H512.058V286.744H522.205Z" fill="black"/>
<path d="M522.202 299.068V289.715H512.055V299.068H522.202Z" fill="black"/>
<path d="M506.225 286.793V284.438H496.079V286.793H506.225Z" fill="black"/>
<path d="M506.225 293.521V291.166H496.079V293.521H506.225Z" fill="black"/>
<path d="M506.225 300.25V297.895H496.079V300.25H506.225Z" fill="black"/>
<path d="M531.264 242.877H528.909V249.943H531.264V242.877Z" fill="black"/>
<path d="M538.329 242.877H535.974V249.943H538.329V242.877Z" fill="black"/>
<path d="M545.394 242.877H543.039V249.943H545.394V242.877Z" fill="black"/>
<path d="M531.264 256.954H528.909V264.019H531.264V256.954Z" fill="black"/>
<path d="M538.329 256.954H535.974V264.019H538.329V256.954Z" fill="black"/>
<path d="M538.329 271.03H535.974V278.095H538.329V271.03Z" fill="black"/>
<path d="M545.394 271.03H543.039V278.095H545.394V271.03Z" fill="black"/>
<path d="M531.264 285.106H528.909V292.172H531.264V285.106Z" fill="black"/>
<path d="M538.329 285.106H535.974V292.172H538.329V285.106Z" fill="black"/>
<path d="M545.394 285.106H543.039V292.172H545.394V285.106Z" fill="black"/>
<path d="M531.264 299.183H528.909V306.248H531.264V299.183Z" fill="black"/>
<path d="M538.329 299.183H535.974V306.248H538.329V299.183Z" fill="black"/>
<path d="M531.264 313.259H528.909V320.324H531.264V313.259Z" fill="black"/>
<path d="M545.394 313.259H543.039V320.324H545.394V313.259Z" fill="black"/>
<path d="M531.264 327.322H528.909V334.387H531.264V327.322Z" fill="black"/>
<path d="M538.329 327.322H535.974V334.387H538.329V327.322Z" fill="black"/>
<path d="M563.75 269.456H561.328V320.311H563.75V269.456Z" fill="black"/>
<path d="M581.931 342.125H579.495V303.704H571.165V342.125H568.729V301.282H581.931V342.125Z" fill="black"/>
<path d="M567.707 298.631L575.216 294.271L582.954 298.752L567.707 298.631Z" fill="black"/>
<path d="M614.915 298.631L622.437 294.271L630.175 298.752L614.915 298.631Z" fill="black"/>
<path d="M584.448 298.564L595.388 292.225L606.639 298.752L584.448 298.564Z" fill="black"/>
<path d="M638.452 342.125H636.016V303.704H582.954V301.282H638.452V342.125Z" fill="black"/>
<path d="M588.821 307.136H585.793V310.164H588.821V307.136Z" fill="black"/>
<path d="M594.514 307.136H591.486V310.164H594.514V307.136Z" fill="black"/>
<path d="M588.821 313.703H585.793V316.731H588.821V313.703Z" fill="black"/>
<path d="M594.514 313.703H591.486V316.731H594.514V313.703Z" fill="black"/>
<path d="M588.821 320.257H585.793V323.285H588.821V320.257Z" fill="black"/>
<path d="M594.514 320.257H591.486V323.285H594.514V320.257Z" fill="black"/>
<path d="M588.821 326.824H585.793V329.852H588.821V326.824Z" fill="black"/>
<path d="M594.514 326.824H591.486V329.852H594.514V326.824Z" fill="black"/>
<path d="M588.821 333.378H585.793V336.406H588.821V333.378Z" fill="black"/>
<path d="M594.514 333.378H591.486V336.406H594.514V333.378Z" fill="black"/>
<path d="M608.765 307.136H605.737V310.164H608.765V307.136Z" fill="black"/>
<path d="M614.457 307.136H611.429V310.164H614.457V307.136Z" fill="black"/>
<path d="M608.765 313.703H605.737V316.731H608.765V313.703Z" fill="black"/>
<path d="M614.457 313.703H611.429V316.731H614.457V313.703Z" fill="black"/>
<path d="M608.765 320.257H605.737V323.285H608.765V320.257Z" fill="black"/>
<path d="M614.457 320.257H611.429V323.285H614.457V320.257Z" fill="black"/>
<path d="M608.765 326.824H605.737V329.852H608.765V326.824Z" fill="black"/>
<path d="M614.457 326.824H611.429V329.852H614.457V326.824Z" fill="black"/>
<path d="M608.765 333.378H605.737V336.406H608.765V333.378Z" fill="black"/>
<path d="M614.457 333.378H611.429V336.406H614.457V333.378Z" fill="black"/>
<path d="M620.096 307.136H617.068V310.164H620.096V307.136Z" fill="black"/>
<path d="M625.775 307.136H622.747V310.164H625.775V307.136Z" fill="black"/>
<path d="M620.096 313.703H617.068V316.731H620.096V313.703Z" fill="black"/>
<path d="M625.775 313.703H622.747V316.731H625.775V313.703Z" fill="black"/>
<path d="M620.096 320.257H617.068V323.285H620.096V320.257Z" fill="black"/>
<path d="M625.775 320.257H622.747V323.285H625.775V320.257Z" fill="black"/>
<path d="M620.096 326.824H617.068V329.852H620.096V326.824Z" fill="black"/>
<path d="M625.775 326.824H622.747V329.852H625.775V326.824Z" fill="black"/>
<path d="M620.096 333.378H617.068V336.406H620.096V333.378Z" fill="black"/>
<path d="M625.775 333.378H622.747V336.406H625.775V333.378Z" fill="black"/>
<path d="M655.408 269.456H624.268V271.42H655.408V269.456Z" fill="black"/>
<path d="M655.408 277.893H624.268V279.858H655.408V277.893Z" fill="black"/>
<path d="M655.408 286.344H624.268V288.309H655.408V286.344Z" fill="black"/>
<path d="M693.761 269.456H669.35V271.42H693.761V269.456Z" fill="black"/>
<path d="M693.761 277.893H669.35V279.858H693.761V277.893Z" fill="black"/>
<path d="M647.333 265.755H645.315V334.899H647.333V265.755Z" fill="black"/>
<path d="M697.126 295.617H662.137V298.039H697.126V295.617Z" fill="black"/>
<path d="M676.469 342.125H674.033V301.888H703.397V304.31H676.469V342.125Z" fill="black"/>
<path d="M778.771 311.308H708.901V313.73H778.771V311.308Z" fill="black"/>
<path d="M778.771 320.284H714.284V322.706H778.771V320.284Z" fill="black"/>
<path d="M789.981 330.821H726.059V333.243H789.981V330.821Z" fill="black"/>
<path d="M724.901 165.754H722.479V284.716H724.901V165.754Z" fill="black"/>
<path d="M731.967 165.754H729.544V284.716H731.967V165.754Z" fill="black"/>
<path d="M739.032 165.754H736.609V269.456H739.032V165.754Z" fill="black"/>
<path d="M760.227 154.732H757.805V251.288H760.227V154.732Z" fill="black"/>
<path d="M767.292 154.732H764.87V284.703H767.292V154.732Z" fill="black"/>
<path d="M774.357 154.732H771.935V284.703H774.357V154.732Z" fill="black"/>
<path d="M781.422 154.732H779V284.703H781.422V154.732Z" fill="black"/>
<path d="M834.592 271.42H830.353V275.269H834.592V271.42Z" fill="black"/>
<path d="M842.115 271.42H837.876V275.269H842.115V271.42Z" fill="black"/>
<path d="M834.592 277.167H830.353V281.015H834.592V277.167Z" fill="black"/>
<path d="M842.115 277.167H837.876V281.015H842.115V277.167Z" fill="black"/>
<path d="M834.592 282.913H830.353V286.762H834.592V282.913Z" fill="black"/>
<path d="M842.115 282.913H837.876V286.762H842.115V282.913Z" fill="black"/>
<path d="M834.592 288.659H830.353V292.508H834.592V288.659Z" fill="black"/>
<path d="M842.115 288.659H837.876V292.508H842.115V288.659Z" fill="black"/>
<path d="M864.319 274.166H860.847V278.014H864.319V274.166Z" fill="black"/>
<path d="M870.496 274.166H867.024V278.014H870.496V274.166Z" fill="black"/>
<path d="M864.319 279.912H860.847V283.761H864.319V279.912Z" fill="black"/>
<path d="M870.496 279.912H867.024V283.761H870.496V279.912Z" fill="black"/>
<path d="M864.319 285.658H860.847V289.507H864.319V285.658Z" fill="black"/>
<path d="M870.496 285.658H867.024V289.507H870.496V285.658Z" fill="black"/>
<path d="M864.319 291.404H860.847V295.253H864.319V291.404Z" fill="black"/>
<path d="M870.496 291.404H867.024V295.253H870.496V291.404Z" fill="black"/>
<path d="M834.592 301.982H830.353V305.831H834.592V301.982Z" fill="black"/>
<path d="M842.115 301.982H837.876V305.831H842.115V301.982Z" fill="black"/>
<path d="M801.083 325.761H798.392V331.036H801.083V325.761Z" fill="black"/>
<path d="M808.485 325.761H805.793V331.036H808.485V325.761Z" fill="black"/>
<path d="M815.886 325.761H813.195V331.036H815.886V325.761Z" fill="black"/>
<path d="M823.288 325.761H820.596V331.036H823.288V325.761Z" fill="black"/>
<path d="M838.091 325.761H835.399V331.036H838.091V325.761Z" fill="black"/>
<path d="M849.866 325.761H847.174V331.036H849.866V325.761Z" fill="black"/>
<path d="M857.267 325.761H854.576V331.036H857.267V325.761Z" fill="black"/>
<path d="M864.669 325.761H861.977V331.036H864.669V325.761Z" fill="black"/>
<path d="M872.07 325.761H869.379V331.036H872.07V325.761Z" fill="black"/>
<path d="M886.874 325.761H884.182V331.036H886.874V325.761Z" fill="black"/>
<path d="M801.083 333.943H798.392V339.218H801.083V333.943Z" fill="black"/>
<path d="M815.886 333.943H813.195V339.218H815.886V333.943Z" fill="black"/>
<path d="M823.288 333.943H820.596V339.218H823.288V333.943Z" fill="black"/>
<path d="M830.689 333.943H827.998V339.218H830.689V333.943Z" fill="black"/>
<path d="M838.091 333.943H835.399V339.218H838.091V333.943Z" fill="black"/>
<path d="M857.267 333.943H854.576V339.218H857.267V333.943Z" fill="black"/>
<path d="M872.07 333.943H869.379V339.218H872.07V333.943Z" fill="black"/>
<path d="M879.472 333.943H876.781V339.218H879.472V333.943Z" fill="black"/>
<path d="M929.264 234.924H904.032V237.616H929.264V234.924Z" fill="black"/>
<path d="M929.264 246.134H904.032V248.825H929.264V246.134Z" fill="black"/>
<path d="M929.264 257.344H904.032V260.035H929.264V257.344Z" fill="black"/>
<path d="M929.264 268.567H904.032V271.259H929.264V268.567Z" fill="black"/>
<path d="M929.264 279.777H904.032V282.469H929.264V279.777Z" fill="black"/>
<path d="M929.264 290.987H904.032V293.679H929.264V290.987Z" fill="black"/>
<path d="M946.059 243.967H943.462V248.085H946.059V243.967Z" fill="black"/>
<path d="M946.059 261.139H943.462V265.257H946.059V261.139Z" fill="black"/>
<path d="M946.059 278.311H943.462V282.428H946.059V278.311Z" fill="black"/>
<path d="M946.059 295.482H943.462V299.6H946.059V295.482Z" fill="black"/>
<path d="M946.059 312.654H943.462V316.771H946.059V312.654Z" fill="black"/>
<path d="M946.059 329.825H943.462V333.943H946.059V329.825Z" fill="black"/>
<path d="M954.779 243.967H952.182V248.085H954.779V243.967Z" fill="black"/>
<path d="M954.779 261.139H952.182V265.257H954.779V261.139Z" fill="black"/>
<path d="M954.779 278.311H952.182V282.428H954.779V278.311Z" fill="black"/>
<path d="M954.779 295.482H952.182V299.6H954.779V295.482Z" fill="black"/>
<path d="M954.779 312.654H952.182V316.771H954.779V312.654Z" fill="black"/>
<path d="M954.779 329.825H952.182V333.943H954.779V329.825Z" fill="black"/>
<path d="M963.499 243.967H960.902V248.085H963.499V243.967Z" fill="black"/>
<path d="M963.499 261.139H960.902V265.257H963.499V261.139Z" fill="black"/>
<path d="M963.499 278.311H960.902V282.428H963.499V278.311Z" fill="black"/>
<path d="M963.499 295.482H960.902V299.6H963.499V295.482Z" fill="black"/>
<path d="M963.499 312.654H960.902V316.771H963.499V312.654Z" fill="black"/>
<path d="M963.499 329.825H960.902V333.943H963.499V329.825Z" fill="black"/>
<path d="M972.22 243.967H969.622V248.085H972.22V243.967Z" fill="black"/>
<path d="M972.22 261.139H969.622V265.257H972.22V261.139Z" fill="black"/>
<path d="M972.22 278.311H969.622V282.428H972.22V278.311Z" fill="black"/>
<path d="M972.22 295.482H969.622V299.6H972.22V295.482Z" fill="black"/>
<path d="M972.22 312.654H969.622V316.771H972.22V312.654Z" fill="black"/>
<path d="M972.22 329.825H969.622V333.943H972.22V329.825Z" fill="black"/>
<path d="M980.94 243.967H978.343V248.085H980.94V243.967Z" fill="black"/>
<path d="M980.94 261.139H978.343V265.257H980.94V261.139Z" fill="black"/>
<path d="M980.94 278.311H978.343V282.428H980.94V278.311Z" fill="black"/>
<path d="M980.94 295.482H978.343V299.6H980.94V295.482Z" fill="black"/>
<path d="M980.94 312.654H978.343V316.771H980.94V312.654Z" fill="black"/>
<path d="M980.94 329.825H978.343V333.943H980.94V329.825Z" fill="black"/>
<path d="M989.66 243.967H987.063V248.085H989.66V243.967Z" fill="black"/>
<path d="M989.66 261.139H987.063V265.257H989.66V261.139Z" fill="black"/>
<path d="M989.66 278.311H987.063V282.428H989.66V278.311Z" fill="black"/>
<path d="M989.66 295.482H987.063V299.6H989.66V295.482Z" fill="black"/>
<path d="M989.66 312.654H987.063V316.771H989.66V312.654Z" fill="black"/>
<path d="M989.66 329.825H987.063V333.943H989.66V329.825Z" fill="black"/>
<path d="M1008.51 237.616H1006.09V333.943H1008.51V237.616Z" fill="black"/>
<path d="M1013.9 237.616H1011.47V333.943H1013.9V237.616Z" fill="black"/>
<path d="M1027.02 237.616H1024.6V333.943H1027.02V237.616Z" fill="black"/>
<path d="M1032.4 237.616H1029.98V333.943H1032.4V237.616Z" fill="black"/>
<path d="M1060.14 320.257H1044.32V322.612H1060.14V320.257Z" fill="black"/>
<path d="M1060.14 326.595H1044.32V328.95H1060.14V326.595Z" fill="black"/>
<path d="M1060.14 332.934H1044.32V335.289H1060.14V332.934Z" fill="black"/>
<path d="M881.935 273.345H878.126V309.383H881.935V273.345Z" fill="black"/>
<path d="M461.353 203.367H435.933V205.789H461.353V203.367Z" fill="black"/>
<path d="M461.353 212.625H435.933V215.048H461.353V212.625Z" fill="black"/>
<path d="M461.353 221.884H435.933V224.306H461.353V221.884Z" fill="black"/>
<path d="M461.353 231.129H435.933V233.551H461.353V231.129Z" fill="black"/>
<path d="M461.353 240.374H435.933V242.797H461.353V240.374Z" fill="black"/>
<path d="M461.353 249.633H435.933V252.055H461.353V249.633Z" fill="black"/>
<path d="M461.353 258.892H435.933V261.314H461.353V258.892Z" fill="black"/>
<path d="M470.074 129.419H452.929V131.841H470.074V129.419Z" fill="black"/>
<path d="M470.074 138.664H452.929V141.086H470.074V138.664Z" fill="black"/>
<path d="M470.074 147.923H452.929V150.345H470.074V147.923Z" fill="black"/>
<path d="M470.074 157.168H452.929V159.59H470.074V157.168Z" fill="black"/>
<path d="M470.074 166.427H452.929V168.849H470.074V166.427Z" fill="black"/>
<path d="M470.074 175.672H452.929V178.094H470.074V175.672Z" fill="black"/>
<path d="M470.074 184.93H452.929V187.353H470.074V184.93Z" fill="black"/>
</svg>
