<svg width="193" height="20" viewBox="0 0 193 20" fill="none" xmlns="http://www.w3.org/2000/svg">
<path d="M26.73 15V8.14H24.896V15H26.73ZM25.82 6.978C26.422 6.978 26.898 6.502 26.898 5.928C26.898 5.326 26.422 4.864 25.82 4.864C25.246 4.864 24.77 5.326 24.77 5.928C24.77 6.516 25.246 6.978 25.82 6.978ZM30.129 8.14H28.407V15H30.241V11.64C30.241 10.52 30.815 9.61 31.809 9.61C32.649 9.61 33.097 10.072 33.097 11.066V15H34.931V10.842C34.931 9.092 34.091 7.916 32.355 7.916C31.417 7.916 30.675 8.35 30.241 9.036H30.129V8.14ZM39.0938 15.224C40.8438 15.224 42.0198 14.16 42.0198 12.97C42.0198 11.962 41.3478 11.192 39.9478 10.856L38.8978 10.604C38.3378 10.45 37.9878 10.296 37.9878 9.974C37.9878 9.638 38.4498 9.4 38.9678 9.4C39.4718 9.4 40.0318 9.624 40.2978 10.17L41.8798 9.526C41.3898 8.406 40.2978 7.916 38.9958 7.916C37.4278 7.916 36.1958 8.714 36.1958 10.044C36.1958 11.22 37.2738 11.836 38.1278 12.018L39.0938 12.228C39.8918 12.41 40.1858 12.62 40.1858 12.998C40.1858 13.334 39.7658 13.614 39.0938 13.614C38.4358 13.614 37.8898 13.278 37.5678 12.564L35.9298 13.264C36.3078 14.258 37.3018 15.224 39.0938 15.224ZM43.833 12.718C43.833 13.488 44.057 14.09 44.491 14.51C44.869 14.888 45.429 15.112 46.115 15.112C46.717 15.112 47.193 15.014 47.627 14.804L47.109 13.194C46.941 13.306 46.787 13.376 46.465 13.376C46.227 13.376 46.031 13.306 45.905 13.152C45.723 12.97 45.667 12.69 45.667 12.368V9.708H47.347V8.14H45.667V6.04H43.833V8.14H42.629V9.708H43.833V12.718ZM52.7874 15H54.5934V10.884C54.5934 8.924 53.4454 7.916 51.3174 7.916C50.0574 7.916 49.0634 8.378 48.3354 9.288L49.6654 10.198C50.0994 9.666 50.6454 9.4 51.2754 9.4C52.1294 9.4 52.7874 9.932 52.7874 10.66V10.87C52.4094 10.716 51.8634 10.548 50.9674 10.548C49.3574 10.548 48.1674 11.458 48.1674 12.872C48.1674 14.258 49.3014 15.224 50.7294 15.224C51.6814 15.224 52.2414 14.79 52.6754 14.272H52.7874V15ZM52.7874 12.214C52.7874 13.04 52.1154 13.796 51.1354 13.796C50.5334 13.796 50.0014 13.432 50.0014 12.872C50.0014 12.312 50.4914 11.878 51.3734 11.878C51.9194 11.878 52.3534 12.004 52.7874 12.214ZM59.1472 18.248C61.3032 18.248 62.7732 16.82 62.7732 14.51V8.14H61.0232V8.882H60.9112C60.4772 8.28 59.7772 7.916 58.8252 7.916C57.2012 7.916 55.5912 9.316 55.5912 11.5C55.5912 13.67 57.2012 15.07 58.8252 15.07C59.7772 15.07 60.4772 14.706 60.9112 14.104H61.0232V14.58C61.0232 15.868 60.3092 16.624 59.1472 16.624C58.4192 16.624 57.7752 16.204 57.5092 15.476L55.7592 16.176C56.0952 17.128 57.2292 18.248 59.1472 18.248ZM59.2172 13.418C58.3212 13.418 57.4252 12.732 57.4252 11.5C57.4252 10.268 58.3212 9.568 59.2172 9.568C60.1272 9.568 61.0232 10.254 61.0232 11.5C61.0232 12.732 60.1272 13.418 59.2172 13.418ZM64.3367 15H66.1707V11.64C66.1707 10.52 66.8287 9.68 67.8367 9.68C68.2287 9.68 68.4807 9.75 68.7047 9.862L69.1947 8.196C68.9567 8.042 68.6207 7.944 68.1307 7.944C67.3327 7.944 66.5067 8.42 66.1707 9.092H66.0587V8.14H64.3367V15ZM69.8861 15.084C70.5581 15.084 71.0901 14.538 71.0901 13.866C71.0901 13.194 70.5581 12.662 69.8861 12.662C69.2141 12.662 68.6681 13.194 68.6681 13.866C68.6681 14.538 69.2141 15.084 69.8861 15.084ZM76.7679 15H78.5739V10.884C78.5739 8.924 77.4259 7.916 75.2979 7.916C74.0379 7.916 73.0439 8.378 72.3159 9.288L73.6459 10.198C74.0799 9.666 74.6259 9.4 75.2559 9.4C76.1099 9.4 76.7679 9.932 76.7679 10.66V10.87C76.3899 10.716 75.8439 10.548 74.9479 10.548C73.3379 10.548 72.1479 11.458 72.1479 12.872C72.1479 14.258 73.2819 15.224 74.7099 15.224C75.6619 15.224 76.2219 14.79 76.6559 14.272H76.7679V15ZM76.7679 12.214C76.7679 13.04 76.0959 13.796 75.1159 13.796C74.5139 13.796 73.9819 13.432 73.9819 12.872C73.9819 12.312 74.4719 11.878 75.3539 11.878C75.8999 11.878 76.3339 12.004 76.7679 12.214ZM80.032 15H81.866V11.668C81.866 10.506 82.384 9.61 83.308 9.61C84.106 9.61 84.512 10.072 84.512 11.01V15H86.346V11.668C86.346 10.506 86.906 9.61 87.858 9.61C88.628 9.61 89.006 10.072 89.006 11.01V15H90.84V10.674C90.84 9.05 90.042 7.916 88.376 7.916C87.256 7.916 86.472 8.49 86.038 9.176C85.744 8.462 85.016 7.916 83.966 7.916C83.07 7.916 82.3 8.364 81.866 9.036H81.754V8.14H80.032V15ZM93.7504 15L97.9084 4.976H96.1024L91.9444 15H93.7504ZM99.077 15H100.799V14.174H100.911C101.247 14.748 101.961 15.224 103.011 15.224C104.761 15.224 106.301 13.698 106.301 11.57C106.301 9.442 104.761 7.916 103.011 7.916C101.961 7.916 101.247 8.392 100.911 8.966H100.799L100.911 7.986V4.976H99.077V15ZM102.633 13.53C101.681 13.53 100.799 12.802 100.799 11.57C100.799 10.338 101.681 9.61 102.633 9.61C103.585 9.61 104.467 10.38 104.467 11.57C104.467 12.76 103.585 13.53 102.633 13.53ZM112.442 12.592C112.12 13.166 111.588 13.6 110.748 13.6C109.894 13.6 109.04 13.11 108.886 11.99H114.052C114.052 11.934 114.052 11.878 114.066 11.836C114.066 11.794 114.066 11.738 114.079 11.682V11.514C114.079 9.456 112.862 7.916 110.65 7.916C108.578 7.916 107.08 9.596 107.08 11.57C107.08 13.684 108.634 15.224 110.72 15.224C112.274 15.224 113.338 14.468 113.968 13.348L112.442 12.592ZM108.984 10.688C109.222 9.89 109.866 9.414 110.65 9.414C111.756 9.414 112.26 10.184 112.302 10.688H108.984ZM120.289 12.592C119.967 13.166 119.435 13.6 118.595 13.6C117.741 13.6 116.887 13.11 116.733 11.99H121.899C121.899 11.934 121.899 11.878 121.913 11.836C121.913 11.794 121.913 11.738 121.927 11.682V11.514C121.927 9.456 120.709 7.916 118.497 7.916C116.425 7.916 114.927 9.596 114.927 11.57C114.927 13.684 116.481 15.224 118.567 15.224C120.121 15.224 121.185 14.468 121.815 13.348L120.289 12.592ZM116.831 10.688C117.069 9.89 117.713 9.414 118.497 9.414C119.603 9.414 120.107 10.184 120.149 10.688H116.831ZM123.592 18.024H125.566L129.864 8.14H127.82L126.154 12.298H126.056L124.32 8.14H122.234L125.118 14.664L123.592 18.024ZM133.675 7.916C131.561 7.916 130.035 9.442 130.035 11.57C130.035 13.698 131.561 15.224 133.675 15.224C135.789 15.224 137.315 13.698 137.315 11.57C137.315 9.442 135.789 7.916 133.675 7.916ZM133.675 13.53C132.723 13.53 131.869 12.802 131.869 11.57C131.869 10.338 132.723 9.61 133.675 9.61C134.627 9.61 135.481 10.338 135.481 11.57C135.481 12.802 134.627 13.53 133.675 13.53ZM143.171 15H144.893V8.14H143.059V11.5C143.059 12.62 142.485 13.53 141.491 13.53C140.651 13.53 140.203 13.068 140.203 12.074V8.14H138.369V12.298C138.369 14.076 139.209 15.224 140.945 15.224C141.883 15.224 142.625 14.79 143.059 14.104H143.171V15ZM149.92 4.864C148.394 4.864 147.316 5.802 147.316 7.468V8.14H146.084V9.708H147.316V15H149.15V9.708H150.858V8.14H149.15V7.58C149.15 6.964 149.486 6.6 150.032 6.6C150.354 6.6 150.55 6.656 150.732 6.754L151.25 5.116C150.9 4.962 150.438 4.864 149.92 4.864ZM156.051 15H157.857V10.884C157.857 8.924 156.709 7.916 154.581 7.916C153.321 7.916 152.327 8.378 151.599 9.288L152.929 10.198C153.363 9.666 153.909 9.4 154.539 9.4C155.393 9.4 156.051 9.932 156.051 10.66V10.87C155.673 10.716 155.127 10.548 154.231 10.548C152.621 10.548 151.431 11.458 151.431 12.872C151.431 14.258 152.565 15.224 153.993 15.224C154.945 15.224 155.505 14.79 155.939 14.272H156.051V15ZM156.051 12.214C156.051 13.04 155.379 13.796 154.399 13.796C153.797 13.796 153.265 13.432 153.265 12.872C153.265 12.312 153.755 11.878 154.637 11.878C155.183 11.878 155.617 12.004 156.051 12.214ZM161.963 15.224C163.713 15.224 164.889 14.16 164.889 12.97C164.889 11.962 164.217 11.192 162.817 10.856L161.767 10.604C161.207 10.45 160.857 10.296 160.857 9.974C160.857 9.638 161.319 9.4 161.837 9.4C162.341 9.4 162.901 9.624 163.167 10.17L164.749 9.526C164.259 8.406 163.167 7.916 161.865 7.916C160.297 7.916 159.065 8.714 159.065 10.044C159.065 11.22 160.143 11.836 160.997 12.018L161.963 12.228C162.761 12.41 163.055 12.62 163.055 12.998C163.055 13.334 162.635 13.614 161.963 13.614C161.305 13.614 160.759 13.278 160.437 12.564L158.799 13.264C159.177 14.258 160.171 15.224 161.963 15.224ZM166.014 15H167.848V11.654C167.848 10.534 168.422 9.61 169.43 9.61C170.228 9.61 170.704 10.114 170.704 11.066V15H172.538V10.842C172.538 9.036 171.712 7.916 169.934 7.916C169.024 7.916 168.24 8.378 167.848 9.036H167.736L167.848 7.79V4.976H166.014V15ZM176 15V8.14H174.166V15H176ZM175.09 6.978C175.692 6.978 176.168 6.502 176.168 5.928C176.168 5.326 175.692 4.864 175.09 4.864C174.516 4.864 174.04 5.326 174.04 5.928C174.04 6.516 174.516 6.978 175.09 6.978ZM180.856 7.916C178.742 7.916 177.216 9.442 177.216 11.57C177.216 13.698 178.742 15.224 180.856 15.224C182.97 15.224 184.496 13.698 184.496 11.57C184.496 9.442 182.97 7.916 180.856 7.916ZM180.856 13.53C179.904 13.53 179.05 12.802 179.05 11.57C179.05 10.338 179.904 9.61 180.856 9.61C181.808 9.61 182.662 10.338 182.662 11.57C182.662 12.802 181.808 13.53 180.856 13.53ZM187.26 8.14H185.538V15H187.372V11.64C187.372 10.52 187.946 9.61 188.94 9.61C189.78 9.61 190.228 10.072 190.228 11.066V15H192.062V10.842C192.062 9.092 191.222 7.916 189.486 7.916C188.548 7.916 187.806 8.35 187.372 9.036H187.26V8.14Z" fill="#009EFE"/>
<path d="M24 16.75H192.79V17.45H24V16.75Z" fill="#009EFE"/>
<path d="M12.145 6.85189C12.6752 6.85189 13.105 6.42208 13.105 5.89188C13.105 5.36169 12.6752 4.93188 12.145 4.93188C11.6148 4.93188 11.185 5.36169 11.185 5.89188C11.185 6.42208 11.6148 6.85189 12.145 6.85189Z" fill="#009EFE"/>
<path d="M8 14C5.794 14 4 12.206 4 10C4 7.794 5.794 6 8 6C10.206 6 12 7.794 12 10C12 12.206 10.206 14 8 14ZM8 8C6.897 8 6 8.897 6 10C6 11.103 6.897 12 8 12C9.103 12 10 11.103 10 10C10 8.897 9.103 8 8 8Z" fill="#009EFE"/>
<path d="M12 18H4C1.944 18 0 16.056 0 14V6C0 3.944 1.944 2 4 2H12C14.056 2 16 3.944 16 6V14C16 16.056 14.056 18 12 18ZM4 4C3.065 4 2 5.065 2 6V14C2 14.953 3.047 16 4 16H12C12.935 16 14 14.935 14 14V6C14 5.065 12.935 4 12 4H4Z" fill="#009EFE"/>
</svg>
