<svg width="307" height="384" viewBox="0 0 307 384" fill="none" xmlns="http://www.w3.org/2000/svg">
<path opacity="0.04" fill-rule="evenodd" clip-rule="evenodd" d="M25.6911 312.552C23.6857 309.377 21.7843 306.108 19.9938 302.746L229.499 95.2701C232.643 97.2317 235.748 99.305 238.805 101.503L25.6911 312.552ZM35.3626 326.146C33.0685 323.271 30.868 320.298 28.7675 317.229L243.256 104.818C246.136 107.041 248.969 109.384 251.748 111.857L35.3626 326.146ZM46.3341 338.453C43.7618 335.867 41.274 333.179 38.8772 330.39L255.787 115.582C258.395 118.074 260.951 120.691 263.448 123.442L46.3341 338.453ZM58.5852 349.493C55.7368 347.195 52.9646 344.788 50.2754 342.274L267.071 127.578C269.407 130.342 271.687 133.232 273.905 136.259L58.5852 349.493ZM72.1374 359.244C69.0058 357.243 65.9427 355.124 62.9555 352.889L277.117 140.802C279.184 143.832 281.193 146.992 283.138 150.288L72.1374 359.244ZM87.0615 367.638C83.629 365.954 80.2574 364.14 76.9547 362.198L285.949 155.228C287.755 158.52 289.5 161.94 291.18 165.496L87.0615 367.638ZM103.493 374.537C99.727 373.209 96.0135 371.733 92.362 370.113L293.598 170.825C295.197 174.52 296.638 178.244 297.924 181.99L103.493 374.537ZM121.672 379.707C117.516 378.799 113.402 377.718 109.343 376.469L299.805 187.851C301.03 191.948 302.073 196.067 302.939 200.196L121.672 379.707ZM142.024 382.725C137.376 382.355 132.759 381.772 128.186 380.981L304.156 206.715C304.913 211.327 305.452 215.946 305.776 220.559L142.024 382.725ZM165.372 382.775C160.038 383.177 154.711 383.293 149.413 383.132L306.115 227.947C306.229 233.288 306.059 238.61 305.613 243.892L165.372 382.775ZM193.697 377.897C187.194 379.666 180.647 380.982 174.094 381.862L304.625 252.595C303.681 259.198 302.305 265.719 300.513 272.116L193.697 377.897ZM235.989 359.187C229.984 363.013 223.635 366.465 216.961 369.498C213.049 371.276 209.102 372.875 205.13 374.299L296.846 283.471C292.913 294.198 287.775 304.481 281.513 314.104L235.989 359.187ZM224.649 92.3491L17.3802 297.61C16.8033 296.422 16.2398 295.223 15.6901 294.014C14.6016 291.619 13.5769 289.241 12.6139 286.882L214.57 86.8821C217.963 88.5993 221.325 90.4168 224.649 92.3491ZM198.572 79.5528C202.185 81.0542 205.781 82.6404 209.349 84.3279L10.4414 281.309C8.98507 277.39 7.69802 273.519 6.56977 269.695L198.572 79.5528ZM181.668 73.1207C185.461 74.4494 189.251 75.8428 193.028 77.319L4.90053 263.624C3.80137 259.311 2.90218 255.058 2.18735 250.863L181.668 73.1207ZM164.093 67.3526C168.007 68.5686 171.937 69.8236 175.87 71.138L1.18958 244.127C0.57876 239.275 0.210084 234.501 0.0582923 229.799L164.093 67.3526ZM146.163 61.9365C146.621 62.0731 147.079 62.2097 147.538 62.3465C151.047 63.3928 154.583 64.4474 158.138 65.5258L0 222.132C0.0953643 216.504 0.491495 210.98 1.14286 205.552L146.163 61.9365ZM128.271 56.4823C132.182 57.7226 136.155 58.935 140.173 60.144L2.47094 196.512C3.65085 189.71 5.20596 183.057 7.04125 176.538L128.271 56.4823ZM110.877 50.5355C114.634 51.9417 118.478 53.2809 122.394 54.5786L10.4676 165.421C13.299 156.937 16.5303 148.674 19.9372 140.595L110.877 50.5355ZM94.4774 43.6045C97.9692 45.2884 101.574 46.8646 105.275 48.3592L25.873 126.993C27.6498 123.028 29.4388 119.105 31.2114 115.217C33.7013 109.757 36.1589 104.367 38.505 99.0346L94.4774 43.6045ZM79.5653 35.1998C82.6842 37.2686 85.9404 39.1898 89.3179 40.9899L44.1185 85.7514C47.2816 77.8662 50.0431 70.0858 52.1344 62.3649L79.5653 35.1998ZM66.5889 24.8781C69.2406 27.4247 72.0511 29.7874 75.0048 31.992L54.4568 52.3409C55.5538 46.5674 56.2059 40.8164 56.2988 35.0685L66.5889 24.8781ZM55.9114 12.2796C58.0227 15.3751 60.3103 18.2558 62.7593 20.9463L56.0919 27.5491C55.7698 23.103 55.0834 18.6537 53.9799 14.1924L55.9114 12.2796ZM52.2416 8.19003L52.9107 7.52733C51.5175 5.13912 50.2197 2.63306 49.023 0C50.2671 2.73732 51.336 5.46666 52.2416 8.19003Z" fill="black"/>
</svg>
