<svg width="124" height="12" viewBox="0 0 124 12" fill="none" xmlns="http://www.w3.org/2000/svg">
<path d="M6.55664 5.50195C6.55664 6.09961 6.38672 6.55664 6.04688 6.87305C5.71094 7.18555 5.23438 7.3418 4.61719 7.3418C4.00391 7.3418 3.51172 7.13672 3.14062 6.72656C2.77344 6.3125 2.58984 5.75 2.58984 5.03906V4.39453C2.58984 3.70703 2.77539 3.1582 3.14648 2.74805C3.52148 2.33398 4.01172 2.12695 4.61719 2.12695C5.24219 2.12695 5.72266 2.28711 6.05859 2.60742C6.39453 2.92773 6.5625 3.37891 6.5625 3.96094H5.70703C5.70703 3.57422 5.61328 3.29883 5.42578 3.13477C5.24219 2.9668 4.97266 2.88281 4.61719 2.88281C4.25 2.88281 3.96094 3.01758 3.75 3.28711C3.53906 3.55664 3.43359 3.93164 3.43359 4.41211V5.07422C3.43359 5.54297 3.53906 5.91211 3.75 6.18164C3.96094 6.45117 4.25 6.58594 4.61719 6.58594C4.97656 6.58594 5.24609 6.50391 5.42578 6.33984C5.60938 6.17578 5.70117 5.89648 5.70117 5.50195H6.55664ZM1.20703 4.72852C1.20703 5.40039 1.36328 6.02344 1.67578 6.59766C1.98828 7.16797 2.41211 7.61523 2.94727 7.93945C3.48633 8.26367 4.06836 8.42578 4.69336 8.42578C5.31836 8.42578 5.89844 8.26367 6.43359 7.93945C6.96875 7.61523 7.39258 7.16797 7.70508 6.59766C8.01758 6.02344 8.17383 5.40039 8.17383 4.72852C8.17383 4.06445 8.01953 3.44922 7.71094 2.88281C7.40234 2.31641 6.97852 1.87109 6.43945 1.54688C5.9043 1.21875 5.32227 1.05469 4.69336 1.05469C4.06836 1.05469 3.48633 1.2168 2.94727 1.54102C2.4082 1.86133 1.98242 2.30664 1.66992 2.87695C1.36133 3.44727 1.20703 4.06445 1.20703 4.72852ZM0.533203 4.72852C0.533203 3.93945 0.714844 3.20703 1.07812 2.53125C1.44531 1.85547 1.95117 1.32422 2.5957 0.9375C3.24414 0.546875 3.94336 0.351562 4.69336 0.351562C5.44336 0.351562 6.14062 0.546875 6.78516 0.9375C7.42969 1.32422 7.93359 1.85547 8.29688 2.53125C8.66406 3.20703 8.84766 3.93945 8.84766 4.72852C8.84766 5.49805 8.67188 6.21875 8.32031 6.89062C7.96875 7.5625 7.46875 8.10352 6.82031 8.51367C6.17578 8.91992 5.4668 9.12305 4.69336 9.12305C3.92383 9.12305 3.21484 8.92188 2.56641 8.51953C1.92188 8.11328 1.42188 7.57422 1.06641 6.90234C0.710938 6.23047 0.533203 5.50586 0.533203 4.72852ZM18.709 9H13.1191V8.2207L16.0723 4.93945C16.5098 4.44336 16.8105 4.04102 16.9746 3.73242C17.1426 3.41992 17.2266 3.09766 17.2266 2.76562C17.2266 2.32031 17.0918 1.95508 16.8223 1.66992C16.5527 1.38477 16.1934 1.24219 15.7441 1.24219C15.2051 1.24219 14.7852 1.39648 14.4844 1.70508C14.1875 2.00977 14.0391 2.43555 14.0391 2.98242H12.9551C12.9551 2.19727 13.207 1.5625 13.7109 1.07812C14.2188 0.59375 14.8965 0.351562 15.7441 0.351562C16.5371 0.351562 17.1641 0.560547 17.625 0.978516C18.0859 1.39258 18.3164 1.94531 18.3164 2.63672C18.3164 3.47656 17.7812 4.47656 16.7109 5.63672L14.4258 8.11523H18.709V9ZM25.207 5.36133C25.207 6.63086 24.9902 7.57422 24.5566 8.19141C24.123 8.80859 23.4453 9.11719 22.5234 9.11719C21.6133 9.11719 20.9395 8.81641 20.502 8.21484C20.0645 7.60938 19.8379 6.70703 19.8223 5.50781V4.06055C19.8223 2.80664 20.0391 1.875 20.4727 1.26562C20.9062 0.65625 21.5859 0.351562 22.5117 0.351562C23.4297 0.351562 24.1055 0.646484 24.5391 1.23633C24.9727 1.82227 25.1953 2.72852 25.207 3.95508V5.36133ZM24.123 3.87891C24.123 2.96094 23.9941 2.29297 23.7363 1.875C23.4785 1.45312 23.0703 1.24219 22.5117 1.24219C21.957 1.24219 21.5527 1.45117 21.2988 1.86914C21.0449 2.28711 20.9141 2.92969 20.9062 3.79688V5.53125C20.9062 6.45312 21.0391 7.13477 21.3047 7.57617C21.5742 8.01367 21.9805 8.23242 22.5234 8.23242C23.0586 8.23242 23.4551 8.02539 23.7129 7.61133C23.9746 7.19727 24.1113 6.54492 24.123 5.6543V3.87891ZM32.1855 9H26.5957V8.2207L29.5488 4.93945C29.9863 4.44336 30.2871 4.04102 30.4512 3.73242C30.6191 3.41992 30.7031 3.09766 30.7031 2.76562C30.7031 2.32031 30.5684 1.95508 30.2988 1.66992C30.0293 1.38477 29.6699 1.24219 29.2207 1.24219C28.6816 1.24219 28.2617 1.39648 27.9609 1.70508C27.6641 2.00977 27.5156 2.43555 27.5156 2.98242H26.4316C26.4316 2.19727 26.6836 1.5625 27.1875 1.07812C27.6953 0.59375 28.373 0.351562 29.2207 0.351562C30.0137 0.351562 30.6406 0.560547 31.1016 0.978516C31.5625 1.39258 31.793 1.94531 31.793 2.63672C31.793 3.47656 31.2578 4.47656 30.1875 5.63672L27.9023 8.11523H32.1855V9ZM38.6836 5.36133C38.6836 6.63086 38.4668 7.57422 38.0332 8.19141C37.5996 8.80859 36.9219 9.11719 36 9.11719C35.0898 9.11719 34.416 8.81641 33.9785 8.21484C33.541 7.60938 33.3145 6.70703 33.2988 5.50781V4.06055C33.2988 2.80664 33.5156 1.875 33.9492 1.26562C34.3828 0.65625 35.0625 0.351562 35.9883 0.351562C36.9062 0.351562 37.582 0.646484 38.0156 1.23633C38.4492 1.82227 38.6719 2.72852 38.6836 3.95508V5.36133ZM37.5996 3.87891C37.5996 2.96094 37.4707 2.29297 37.2129 1.875C36.9551 1.45312 36.5469 1.24219 35.9883 1.24219C35.4336 1.24219 35.0293 1.45117 34.7754 1.86914C34.5215 2.28711 34.3906 2.92969 34.3828 3.79688V5.53125C34.3828 6.45312 34.5156 7.13477 34.7812 7.57617C35.0508 8.01367 35.457 8.23242 36 8.23242C36.5352 8.23242 36.9316 8.02539 37.1895 7.61133C37.4512 7.19727 37.5879 6.54492 37.5996 5.6543V3.87891ZM48.5273 5.90039C48.5273 6.86914 48.3047 7.64844 47.8594 8.23828C47.4141 8.82422 46.8164 9.11719 46.0664 9.11719C45.2656 9.11719 44.6465 8.83398 44.209 8.26758L44.1562 9H43.1602V0H44.2441V3.35742C44.6816 2.81445 45.2852 2.54297 46.0547 2.54297C46.8242 2.54297 47.4277 2.83398 47.8652 3.41602C48.3066 3.99805 48.5273 4.79492 48.5273 5.80664V5.90039ZM47.4434 5.77734C47.4434 5.03906 47.3008 4.46875 47.0156 4.06641C46.7305 3.66406 46.3203 3.46289 45.7852 3.46289C45.0703 3.46289 44.5566 3.79492 44.2441 4.45898V7.20117C44.5762 7.86523 45.0938 8.19727 45.7969 8.19727C46.3164 8.19727 46.7207 7.99609 47.0098 7.59375C47.2988 7.19141 47.4434 6.58594 47.4434 5.77734ZM52.5293 9.11719C51.6699 9.11719 50.9707 8.83594 50.4316 8.27344C49.8926 7.70703 49.623 6.95117 49.623 6.00586V5.80664C49.623 5.17773 49.7422 4.61719 49.9805 4.125C50.2227 3.62891 50.5586 3.24219 50.9883 2.96484C51.4219 2.68359 51.8906 2.54297 52.3945 2.54297C53.2188 2.54297 53.8594 2.81445 54.3164 3.35742C54.7734 3.90039 55.002 4.67773 55.002 5.68945V6.14062H50.707C50.7227 6.76562 50.9043 7.27148 51.252 7.6582C51.6035 8.04102 52.0488 8.23242 52.5879 8.23242C52.9707 8.23242 53.2949 8.1543 53.5605 7.99805C53.8262 7.8418 54.0586 7.63477 54.2578 7.37695L54.9199 7.89258C54.3887 8.70898 53.5918 9.11719 52.5293 9.11719ZM52.3945 3.43359C51.957 3.43359 51.5898 3.59375 51.293 3.91406C50.9961 4.23047 50.8125 4.67578 50.7422 5.25H53.918V5.16797C53.8867 4.61719 53.7383 4.19141 53.4727 3.89062C53.207 3.58594 52.8477 3.43359 52.3945 3.43359ZM58.8926 9.11719C58.0332 9.11719 57.334 8.83594 56.7949 8.27344C56.2559 7.70703 55.9863 6.95117 55.9863 6.00586V5.80664C55.9863 5.17773 56.1055 4.61719 56.3438 4.125C56.5859 3.62891 56.9219 3.24219 57.3516 2.96484C57.7852 2.68359 58.2539 2.54297 58.7578 2.54297C59.582 2.54297 60.2227 2.81445 60.6797 3.35742C61.1367 3.90039 61.3652 4.67773 61.3652 5.68945V6.14062H57.0703C57.0859 6.76562 57.2676 7.27148 57.6152 7.6582C57.9668 8.04102 58.4121 8.23242 58.9512 8.23242C59.334 8.23242 59.6582 8.1543 59.9238 7.99805C60.1895 7.8418 60.4219 7.63477 60.6211 7.37695L61.2832 7.89258C60.752 8.70898 59.9551 9.11719 58.8926 9.11719ZM58.7578 3.43359C58.3203 3.43359 57.9531 3.59375 57.6562 3.91406C57.3594 4.23047 57.1758 4.67578 57.1055 5.25H60.2812V5.16797C60.25 4.61719 60.1016 4.19141 59.8359 3.89062C59.5703 3.58594 59.2109 3.43359 58.7578 3.43359ZM67.9922 5.90039C67.9922 6.86914 67.7695 7.64844 67.3242 8.23828C66.8789 8.82422 66.2812 9.11719 65.5312 9.11719C64.7305 9.11719 64.1113 8.83398 63.6738 8.26758L63.6211 9H62.625V0H63.709V3.35742C64.1465 2.81445 64.75 2.54297 65.5195 2.54297C66.2891 2.54297 66.8926 2.83398 67.3301 3.41602C67.7715 3.99805 67.9922 4.79492 67.9922 5.80664V5.90039ZM66.9082 5.77734C66.9082 5.03906 66.7656 4.46875 66.4805 4.06641C66.1953 3.66406 65.7852 3.46289 65.25 3.46289C64.5352 3.46289 64.0215 3.79492 63.709 4.45898V7.20117C64.041 7.86523 64.5586 8.19727 65.2617 8.19727C65.7812 8.19727 66.1855 7.99609 66.4746 7.59375C66.7637 7.19141 66.9082 6.58594 66.9082 5.77734ZM73.2773 9C73.2148 8.875 73.1641 8.65234 73.125 8.33203C72.6211 8.85547 72.0195 9.11719 71.3203 9.11719C70.6953 9.11719 70.1816 8.94141 69.7793 8.58984C69.3809 8.23438 69.1816 7.78516 69.1816 7.24219C69.1816 6.58203 69.4316 6.07031 69.9316 5.70703C70.4355 5.33984 71.1426 5.15625 72.0527 5.15625H73.1074V4.6582C73.1074 4.2793 72.9941 3.97852 72.7676 3.75586C72.541 3.5293 72.207 3.41602 71.7656 3.41602C71.3789 3.41602 71.0547 3.51367 70.793 3.70898C70.5312 3.9043 70.4004 4.14062 70.4004 4.41797H69.3105C69.3105 4.10156 69.4219 3.79688 69.6445 3.50391C69.8711 3.20703 70.1758 2.97266 70.5586 2.80078C70.9453 2.62891 71.3691 2.54297 71.8301 2.54297C72.5605 2.54297 73.1328 2.72656 73.5469 3.09375C73.9609 3.45703 74.1758 3.95898 74.1914 4.59961V7.51758C74.1914 8.09961 74.2656 8.5625 74.4141 8.90625V9H73.2773ZM71.4785 8.17383C71.8184 8.17383 72.1406 8.08594 72.4453 7.91016C72.75 7.73438 72.9707 7.50586 73.1074 7.22461V5.92383H72.2578C70.9297 5.92383 70.2656 6.3125 70.2656 7.08984C70.2656 7.42969 70.3789 7.69531 70.6055 7.88672C70.832 8.07812 71.123 8.17383 71.4785 8.17383ZM75.6328 5.77734C75.6328 4.78906 75.8613 4.00391 76.3184 3.42188C76.7754 2.83594 77.3809 2.54297 78.1348 2.54297C78.9082 2.54297 79.5117 2.81641 79.9453 3.36328L79.998 2.66016H80.9883V8.84766C80.9883 9.66797 80.7441 10.3145 80.2559 10.7871C79.7715 11.2598 79.1191 11.4961 78.2988 11.4961C77.8418 11.4961 77.3945 11.3984 76.957 11.2031C76.5195 11.0078 76.1855 10.7402 75.9551 10.4004L76.5176 9.75C76.9824 10.3242 77.5508 10.6113 78.2227 10.6113C78.75 10.6113 79.1602 10.4629 79.4531 10.166C79.75 9.86914 79.8984 9.45117 79.8984 8.91211V8.36719C79.4648 8.86719 78.873 9.11719 78.123 9.11719C77.3809 9.11719 76.7793 8.81836 76.3184 8.2207C75.8613 7.62305 75.6328 6.80859 75.6328 5.77734ZM76.7227 5.90039C76.7227 6.61523 76.8691 7.17773 77.1621 7.58789C77.4551 7.99414 77.8652 8.19727 78.3926 8.19727C79.0762 8.19727 79.5781 7.88672 79.8984 7.26562V4.37109C79.5664 3.76562 79.0684 3.46289 78.4043 3.46289C77.877 3.46289 77.4648 3.66797 77.168 4.07812C76.8711 4.48828 76.7227 5.0957 76.7227 5.90039ZM82.6523 8.43164C82.6523 8.24414 82.707 8.08789 82.8164 7.96289C82.9297 7.83789 83.0977 7.77539 83.3203 7.77539C83.543 7.77539 83.7109 7.83789 83.8242 7.96289C83.9414 8.08789 84 8.24414 84 8.43164C84 8.61133 83.9414 8.76172 83.8242 8.88281C83.7109 9.00391 83.543 9.06445 83.3203 9.06445C83.0977 9.06445 82.9297 9.00391 82.8164 8.88281C82.707 8.76172 82.6523 8.61133 82.6523 8.43164ZM88.3359 8.23242C88.7227 8.23242 89.0605 8.11523 89.3496 7.88086C89.6387 7.64648 89.7988 7.35352 89.8301 7.00195H90.8555C90.8359 7.36523 90.7109 7.71094 90.4805 8.03906C90.25 8.36719 89.9414 8.62891 89.5547 8.82422C89.1719 9.01953 88.7656 9.11719 88.3359 9.11719C87.4727 9.11719 86.7852 8.83008 86.2734 8.25586C85.7656 7.67773 85.5117 6.88867 85.5117 5.88867V5.70703C85.5117 5.08984 85.625 4.54102 85.8516 4.06055C86.0781 3.58008 86.4023 3.20703 86.8242 2.94141C87.25 2.67578 87.752 2.54297 88.3301 2.54297C89.041 2.54297 89.6309 2.75586 90.0996 3.18164C90.5723 3.60742 90.8242 4.16016 90.8555 4.83984H89.8301C89.7988 4.42969 89.6426 4.09375 89.3613 3.83203C89.084 3.56641 88.7402 3.43359 88.3301 3.43359C87.7793 3.43359 87.3516 3.63281 87.0469 4.03125C86.7461 4.42578 86.5957 4.99805 86.5957 5.74805V5.95312C86.5957 6.68359 86.7461 7.24609 87.0469 7.64062C87.3477 8.03516 87.7773 8.23242 88.3359 8.23242ZM91.7871 5.77148C91.7871 5.15039 91.9082 4.5918 92.1504 4.0957C92.3965 3.59961 92.7363 3.2168 93.1699 2.94727C93.6074 2.67773 94.1055 2.54297 94.6641 2.54297C95.5273 2.54297 96.2246 2.8418 96.7559 3.43945C97.291 4.03711 97.5586 4.83203 97.5586 5.82422V5.90039C97.5586 6.51758 97.4395 7.07227 97.2012 7.56445C96.9668 8.05273 96.6289 8.43359 96.1875 8.70703C95.75 8.98047 95.2461 9.11719 94.6758 9.11719C93.8164 9.11719 93.1191 8.81836 92.584 8.2207C92.0527 7.62305 91.7871 6.83203 91.7871 5.84766V5.77148ZM92.877 5.90039C92.877 6.60352 93.0391 7.16797 93.3633 7.59375C93.6914 8.01953 94.1289 8.23242 94.6758 8.23242C95.2266 8.23242 95.6641 8.01758 95.9883 7.58789C96.3125 7.1543 96.4746 6.54883 96.4746 5.77148C96.4746 5.07617 96.3086 4.51367 95.9766 4.08398C95.6484 3.65039 95.2109 3.43359 94.6641 3.43359C94.1289 3.43359 93.6973 3.64648 93.3691 4.07227C93.041 4.49805 92.877 5.10742 92.877 5.90039ZM99.9375 2.66016L99.9668 3.36328C100.432 2.81641 101.059 2.54297 101.848 2.54297C102.734 2.54297 103.338 2.88281 103.658 3.5625C103.869 3.25781 104.143 3.01172 104.479 2.82422C104.818 2.63672 105.219 2.54297 105.68 2.54297C107.07 2.54297 107.777 3.2793 107.801 4.75195V9H106.717V4.81641C106.717 4.36328 106.613 4.02539 106.406 3.80273C106.199 3.57617 105.852 3.46289 105.363 3.46289C104.961 3.46289 104.627 3.58398 104.361 3.82617C104.096 4.06445 103.941 4.38672 103.898 4.79297V9H102.809V4.8457C102.809 3.92383 102.357 3.46289 101.455 3.46289C100.744 3.46289 100.258 3.76562 99.9961 4.37109V9H98.9121V2.66016H99.9375ZM109.465 8.43164C109.465 8.24414 109.52 8.08789 109.629 7.96289C109.742 7.83789 109.91 7.77539 110.133 7.77539C110.355 7.77539 110.523 7.83789 110.637 7.96289C110.754 8.08789 110.812 8.24414 110.812 8.43164C110.812 8.61133 110.754 8.76172 110.637 8.88281C110.523 9.00391 110.355 9.06445 110.133 9.06445C109.91 9.06445 109.742 9.00391 109.629 8.88281C109.52 8.76172 109.465 8.61133 109.465 8.43164ZM114.697 7.5293L116.268 2.66016H117.375L115.102 9H114.275L111.979 2.66016H113.086L114.697 7.5293ZM119.443 2.66016L119.479 3.45703C119.963 2.84766 120.596 2.54297 121.377 2.54297C122.717 2.54297 123.393 3.29883 123.404 4.81055V9H122.32V4.80469C122.316 4.34766 122.211 4.00977 122.004 3.79102C121.801 3.57227 121.482 3.46289 121.049 3.46289C120.697 3.46289 120.389 3.55664 120.123 3.74414C119.857 3.93164 119.65 4.17773 119.502 4.48242V9H118.418V2.66016H119.443Z" fill="black"/>
</svg>
