<svg width="40" height="96" viewBox="0 0 40 96" fill="none" xmlns="http://www.w3.org/2000/svg">
<circle r="20" transform="matrix(1 0 0 -1 20 20)" fill="#FFC800"/>
<path d="M25.7076 23.5929L19.9836 17.869L14.2596 23.5929C14.0081 23.8358 13.6713 23.9702 13.3217 23.9672C12.9722 23.9641 12.6377 23.8239 12.3905 23.5767C12.1433 23.3295 12.0031 22.9951 12.0001 22.6455C11.997 22.2959 12.1314 21.9591 12.3743 21.7076L19.0409 15.041C19.291 14.791 19.6301 14.6506 19.9836 14.6506C20.3372 14.6506 20.6762 14.791 20.9263 15.041L27.5929 21.7076C27.7203 21.8306 27.8219 21.9777 27.8918 22.1404C27.9616 22.3031 27.9984 22.478 27.9999 22.6551C28.0015 22.8321 27.9678 23.0077 27.9007 23.1716C27.8337 23.3354 27.7347 23.4843 27.6095 23.6095C27.4843 23.7347 27.3354 23.8337 27.1716 23.9007C27.0077 23.9678 26.8321 24.0015 26.6551 23.9999C26.478 23.9984 26.3031 23.9616 26.1404 23.8918C25.9777 23.8219 25.8306 23.7203 25.7076 23.5929Z" fill="black"/>
<circle cx="20" cy="76" r="20" fill="#FFC800"/>
<path d="M25.7076 72.4071L19.9836 78.131L14.2596 72.4071C14.0081 72.1642 13.6713 72.0298 13.3217 72.0328C12.9722 72.0359 12.6377 72.1761 12.3905 72.4233C12.1433 72.6705 12.0031 73.0049 12.0001 73.3545C11.997 73.7041 12.1314 74.0409 12.3743 74.2924L19.0409 80.959C19.291 81.209 19.6301 81.3494 19.9836 81.3494C20.3372 81.3494 20.6762 81.209 20.9263 80.959L27.5929 74.2924C27.7203 74.1694 27.8219 74.0223 27.8918 73.8596C27.9616 73.6969 27.9984 73.522 27.9999 73.3449C28.0015 73.1679 27.9678 72.9923 27.9007 72.8284C27.8337 72.6646 27.7347 72.5157 27.6095 72.3905C27.4843 72.2653 27.3354 72.1663 27.1716 72.0993C27.0077 72.0322 26.8321 71.9985 26.6551 72.0001C26.478 72.0016 26.3031 72.0384 26.1404 72.1082C25.9777 72.1781 25.8306 72.2797 25.7076 72.4071Z" fill="black"/>
</svg>
