<svg width="10" height="17" viewBox="0 0 10 17" fill="none" xmlns="http://www.w3.org/2000/svg">
<path d="M9.3042 6.75669C9.3042 6.17362 9.13064 5.59551 8.80222 5.08476C8.12454 4.03172 7.76636 2.77285 7.76636 1.44423V0.522135C7.76636 0.23376 7.53255 0 7.24422 0H2.75589C2.46757 0 2.23376 0.23376 2.23376 0.522135V1.44428C2.23376 2.7729 1.87557 4.03177 1.19784 5.08492C0.86942 5.59551 0.695862 6.17362 0.695862 6.75674C0.695862 7.63727 1.07822 8.46595 1.77653 9.11559V13.1986C1.77653 14.9762 3.22242 16.4224 4.99972 16.4224C6.77733 16.4224 8.22354 14.9762 8.22354 13.1986V9.11559C8.92184 8.4659 9.3042 7.63722 9.3042 6.75669ZM7.17927 13.1985C7.17927 14.4003 6.20152 15.3781 4.99972 15.3781C3.79823 15.3781 2.8208 14.4003 2.8208 13.1985V8.54391C2.8208 7.95222 3.05732 7.40262 3.45827 7.00204C3.57643 7.74661 4.22268 8.31772 4.99993 8.31772C5.77676 8.31772 6.42269 7.74734 6.54143 7.00345C6.95276 7.41516 7.17932 7.9622 7.17932 8.54391V13.1985H7.17927ZM4.48301 6.75659V4.67849C4.48301 4.39345 4.71484 4.16157 4.99988 4.16157C5.28491 4.16157 5.51679 4.39345 5.51679 4.67849V6.75659C5.51679 7.04162 5.28491 7.2735 4.99988 7.2735C4.71484 7.2735 4.48301 7.04162 4.48301 6.75659ZM8.0776 7.58177C7.92446 7.08997 7.65384 6.63916 7.27915 6.26447C7.06445 6.04977 6.82364 5.86922 6.56106 5.72386V4.67854C6.56106 3.8177 5.86072 3.11736 4.99988 3.11736C4.13908 3.11736 3.43874 3.8177 3.43874 4.67854V5.72271C2.70462 6.12788 2.16656 6.79679 1.92236 7.58193C1.80274 7.31908 1.74003 7.04084 1.74003 6.7568C1.74003 6.36895 1.85307 5.99651 2.07597 5.65003C2.86236 4.42812 3.27798 2.97382 3.27798 1.44438V1.04427H6.72203V1.44428C6.72203 2.97372 7.13765 4.42802 7.92394 5.64976C8.14689 5.99646 8.25993 6.36885 8.25993 6.75669C8.25988 7.04073 8.19717 7.31898 8.0776 7.58177Z" fill="black"/>
</svg>
